<svg xmlns="http://www.w3.org/2000/svg" xml:space="preserve" id="Layer_1" x="0" y="0" style="enable-background:new 0 0 512 512" version="1.1" viewBox="0 0 512 512"><style>.st2{fill:#58595b}</style><path d="M424.9 295H423c-8.1-36.8-40.8-64.3-80-64.3-4.8 0-9.5.4-14.1 1.2v-1.2c0-62.4-50.6-113.1-113.1-113.1s-113.1 50.6-113.1 113.1c0 2.1.1 4.2.2 6.2-37.7 6.2-66.4 38.9-66.4 78.3 0 43.8 35.5 79.4 79.4 79.4H425c27.5 0 49.8-22.3 49.8-49.8-.1-27.5-22.3-49.8-49.9-49.8z" style="fill:#fff"/><path d="M424.9 352.6h-309c-36.6 0-67.3-24.7-76.5-58.4-1.8 6.7-2.8 13.7-2.8 21 0 43.8 35.5 79.4 79.4 79.4h309.1c27.5 0 49.8-22.3 49.8-49.8 0-7.5-1.7-14.6-4.6-21-8.1 17-25.4 28.8-45.4 28.8z" style="fill:#d1d3d4"/><circle cx="178.6" cy="220.4" r="15.5" class="st2"/><circle cx="261.9" cy="220.4" r="15.5" class="st2"/><path d="M236.1 245.6c0 9.3-7.5 16.9-16.9 16.9s-16.9-7.5-16.9-16.9h33.8z" style="fill:#ff6951"/></svg>