<svg xmlns="http://www.w3.org/2000/svg" width="100" height="56" fill="none"><g fill-rule="evenodd" clip-path="url(#a)" clip-rule="evenodd"><path fill="#C8D0D6" d="M88.62 20.038c5.937 0 10.767 4.868 10.767 10.856 0 5.983-4.83 10.852-10.767 10.852H41.807c-7.45 0-13.513-6.113-13.513-13.627 0-7.513 6.063-13.626 13.513-13.626 1.387 0 2.767.216 4.094.64l.868.277.305-.863C49.935 6.437 57.581.988 66.099.988c10.414 0 19.058 7.866 20.107 18.3l.097.965.957-.119c.527-.065.96-.096 1.36-.096Z"/><path fill="#EDF3F9" d="M11.894 31.33C5.337 31.33 0 36.69 0 43.282c0 6.587 5.337 11.95 11.894 11.95H63.61c8.234 0 14.93-6.73 14.93-15.003 0-8.272-6.696-15.002-14.93-15.002-1.531 0-3.055.238-4.522.703l-.957.306-.338-.952c-3.16-8.928-11.608-14.926-21.018-14.926-11.505 0-21.054 8.662-22.212 20.147l-.107 1.064-1.056-.13a11.908 11.908 0 0 0-1.505-.107Z"/></g><defs><clipPath id="a"><path fill="#fff" d="M0 0h100v56H0z"/></clipPath></defs></svg>