<svg xmlns="http://www.w3.org/2000/svg" width="100" height="67" fill="none"><g clip-path="url(#a)"><path fill="#F9C900" fill-rule="evenodd" d="M33.494 18.331c8.362.007 15.134 6.746 15.128 15.054-.007 8.308-6.79 15.037-15.151 15.03-8.362-.006-15.134-6.745-15.128-15.053.006-8.308 6.79-15.037 15.151-15.03ZM29.884 53.435c0 .182-.023.364-.072.548l-2.513 9.287a2.123 2.123 0 0 1-2.6 1.488 2.106 2.106 0 0 1-1.5-2.584l2.513-9.286a2.126 2.126 0 0 1 2.6-1.49 2.114 2.114 0 0 1 1.572 2.037ZM19.368 49.623c0 .568-.23 1.135-.685 1.55l-7.117 6.517a2.132 2.132 0 0 1-2.998-.123 2.1 2.1 0 0 1 .121-2.98l7.117-6.516a2.132 2.132 0 0 1 3 .123c.377.403.562.917.562 1.429Z" clip-rule="evenodd"/><mask id="b" width="14" height="7" x="0" y="37" maskUnits="userSpaceOnUse" style="mask-type:luminance"><path fill="#fff" fill-rule="evenodd" d="M0 37.272v6.625h13.616v-6.625H0Z" clip-rule="evenodd"/></mask><g mask="url(#b)"><path fill="#F9C900" fill-rule="evenodd" d="M13.616 39.384a2.11 2.11 0 0 1-1.591 2.038l-9.37 2.407a2.126 2.126 0 0 1-2.588-1.513 2.111 2.111 0 0 1 1.526-2.57l9.37-2.407a2.122 2.122 0 0 1 2.653 2.045Z" clip-rule="evenodd"/></g><path fill="#F9C900" fill-rule="evenodd" d="M13.914 27.57a2.123 2.123 0 0 1-2.651 2.042l-9.375-2.398a2.11 2.11 0 0 1-1.525-2.569 2.124 2.124 0 0 1 2.585-1.515l9.372 2.397a2.113 2.113 0 0 1 1.594 2.042ZM19.315 17.3c0 .529-.198 1.057-.598 1.465a2.133 2.133 0 0 1-3.002.049l-6.95-6.69a2.098 2.098 0 0 1-.05-2.982 2.133 2.133 0 0 1 3.002-.048l6.952 6.689c.431.414.646.966.646 1.517ZM29.176 11.437c0 .943-.643 1.8-1.604 2.042a2.122 2.122 0 0 1-2.577-1.53L22.63 2.623a2.11 2.11 0 0 1 1.54-2.56 2.125 2.125 0 0 1 2.577 1.53l2.366 9.325c.043.173.064.346.064.518ZM43.385 2.8c0 .177-.023.357-.07.536l-2.46 9.3a2.125 2.125 0 0 1-2.593 1.503 2.109 2.109 0 0 1-1.513-2.575l2.46-9.302a2.126 2.126 0 0 1 4.176.537ZM58.776 10.829c0 .588-.246 1.173-.73 1.59l-7.301 6.312a2.134 2.134 0 0 1-2.994-.207 2.1 2.1 0 0 1 .208-2.977l7.302-6.31a2.13 2.13 0 0 1 2.994.207c.351.4.521.895.521 1.385ZM66.302 24.903c0 .926-.62 1.774-1.562 2.032l-9.332 2.543a2.121 2.121 0 0 1-2.608-1.476 2.105 2.105 0 0 1 1.485-2.592l9.332-2.543a2.122 2.122 0 0 1 2.685 2.036ZM66.141 41.344a2.123 2.123 0 0 1-2.651 2.042l-9.374-2.397a2.107 2.107 0 0 1-1.526-2.568 2.124 2.124 0 0 1 2.585-1.516l9.373 2.397a2.113 2.113 0 0 1 1.593 2.042ZM58.215 55.824c0 .548-.212 1.093-.638 1.505a2.131 2.131 0 0 1-3.002-.031L47.81 50.42a2.098 2.098 0 0 1 .034-2.98 2.131 2.131 0 0 1 3.002.031l6.766 6.877c.405.41.605.943.605 1.475ZM43.603 63.601c0 .93-.623 1.78-1.57 2.034a2.125 2.125 0 0 1-2.602-1.489l-2.52-9.284a2.11 2.11 0 0 1 1.499-2.585 2.125 2.125 0 0 1 2.602 1.488l2.517 9.284c.05.184.074.37.074.552Z" clip-rule="evenodd"/><path fill="#EDF3F9" fill-rule="evenodd" d="M30.393 41.599c-6.768 0-12.277 5.526-12.277 12.32 0 6.79 5.509 12.318 12.277 12.318h53.376c8.498 0 15.409-6.938 15.409-15.466 0-8.527-6.91-15.465-15.409-15.465-1.58 0-3.153.245-4.668.725l-.987.315-.349-.981c-3.262-9.204-11.98-15.388-21.694-15.388-11.874 0-21.73 8.93-22.925 20.77l-.11 1.097-1.09-.135a12.286 12.286 0 0 0-1.553-.11Z" clip-rule="evenodd"/></g><defs><clipPath id="a"><path fill="#fff" d="M0 0h100v67H0z"/></clipPath></defs></svg>