<svg xmlns="http://www.w3.org/2000/svg" width="100" height="66" fill="none"><g clip-path="url(#a)"><path fill="#F9C900" fill-rule="evenodd" d="M30.273 16.517c7.558.006 13.68 6.078 13.674 13.564-.006 7.486-6.137 13.549-13.695 13.543-7.557-.006-13.678-6.078-13.673-13.564.006-7.486 6.137-13.549 13.694-13.543ZM27.01 48.147c0 .164-.02.328-.065.493l-2.27 8.368a1.92 1.92 0 0 1-2.35 1.34 1.897 1.897 0 0 1-1.357-2.327l2.272-8.367a1.922 1.922 0 0 1 2.35-1.343 1.906 1.906 0 0 1 1.42 1.836ZM17.505 44.712c0 .512-.207 1.023-.619 1.396l-6.433 5.872a1.93 1.93 0 0 1-2.71-.11 1.887 1.887 0 0 1 .11-2.686l6.433-5.87a1.931 1.931 0 0 1 2.712.11c.34.364.507.827.507 1.288Z" clip-rule="evenodd"/><mask id="b" width="13" height="7" x="0" y="33" maskUnits="userSpaceOnUse" style="mask-type:luminance"><path fill="#fff" fill-rule="evenodd" d="M0 33.583v5.97h12.307v-5.97H0Z" clip-rule="evenodd"/></mask><g mask="url(#b)"><path fill="#F9C900" fill-rule="evenodd" d="M12.307 35.486c0 .846-.575 1.615-1.439 1.836L2.4 39.492a1.922 1.922 0 0 1-2.338-1.364 1.902 1.902 0 0 1 1.378-2.316l8.47-2.168a1.918 1.918 0 0 1 2.336 1.364c.043.16.062.32.062.478Z" clip-rule="evenodd"/></g><path fill="#F9C900" fill-rule="evenodd" d="M12.576 24.84a1.92 1.92 0 0 1-2.396 1.84l-8.473-2.16a1.9 1.9 0 0 1-1.38-2.314 1.92 1.92 0 0 1 2.337-1.365L11.136 23c.865.22 1.44.992 1.44 1.84ZM17.458 15.588c0 .476-.179.953-.54 1.32a1.933 1.933 0 0 1-2.714.044l-6.282-6.029a1.886 1.886 0 0 1-.045-2.685 1.933 1.933 0 0 1 2.714-.044l6.283 6.027c.39.373.584.87.584 1.367ZM26.37 10.305c0 .85-.58 1.623-1.45 1.84a1.918 1.918 0 0 1-2.328-1.379l-2.139-8.402A1.9 1.9 0 0 1 21.846.058a1.921 1.921 0 0 1 2.328 1.379l2.139 8.401c.038.157.058.313.058.467ZM39.214 2.522c0 .16-.021.322-.064.484l-2.223 8.38a1.92 1.92 0 0 1-2.344 1.353 1.9 1.9 0 0 1-1.367-2.32l2.223-8.38A1.922 1.922 0 0 1 37.783.683c.861.225 1.43.994 1.43 1.838ZM53.125 9.757c0 .53-.223 1.057-.66 1.433l-6.6 5.687a1.933 1.933 0 0 1-2.706-.186 1.888 1.888 0 0 1 .189-2.682l6.6-5.686a1.93 1.93 0 0 1 2.706.187c.317.36.47.805.47 1.247ZM59.927 22.439c0 .834-.56 1.598-1.412 1.83l-8.434 2.291a1.918 1.918 0 0 1-2.358-1.33 1.896 1.896 0 0 1 1.342-2.334l8.435-2.292a1.919 1.919 0 0 1 2.427 1.835ZM59.782 37.253a1.92 1.92 0 0 1-2.396 1.84l-8.474-2.16a1.898 1.898 0 0 1-1.378-2.315 1.92 1.92 0 0 1 2.336-1.365l8.471 2.16c.866.22 1.44.992 1.44 1.84ZM52.618 50.3c0 .493-.192.984-.577 1.356a1.93 1.93 0 0 1-2.713-.029l-6.116-6.196a1.886 1.886 0 0 1 .03-2.686 1.93 1.93 0 0 1 2.714.029l6.116 6.196c.365.37.546.85.546 1.33ZM39.41 57.307c0 .838-.563 1.604-1.419 1.832a1.921 1.921 0 0 1-2.352-1.34l-2.277-8.367a1.9 1.9 0 0 1 1.354-2.329 1.921 1.921 0 0 1 2.352 1.341l2.275 8.366c.046.165.068.333.068.497Z" clip-rule="evenodd"/><path fill="#C8D0D6" fill-rule="evenodd" d="M89.301 32.573c5.538 0 10.044 4.522 10.044 10.084 0 5.558-4.506 10.08-10.044 10.08H45.63c-6.95 0-12.606-5.678-12.606-12.657S38.68 27.423 45.63 27.423c1.294 0 2.58.2 3.819.594l.81.257.284-.802c2.67-7.533 9.802-12.594 17.748-12.594 9.716 0 17.78 7.307 18.758 16.998l.09.897.893-.11c.492-.061.896-.09 1.269-.09Z" clip-rule="evenodd"/><path fill="#EDF3F9" fill-rule="evenodd" d="M17.725 43.063c-6.118 0-11.096 4.979-11.096 11.1 0 6.119 4.979 11.1 11.096 11.1h48.244c7.68 0 13.927-6.252 13.927-13.935 0-7.684-6.246-13.936-13.927-13.936-1.429 0-2.85.221-4.22.654l-.892.284-.315-.884C57.594 29.152 49.713 23.58 40.934 23.58a20.76 20.76 0 0 0-20.72 18.714l-.1.989-.985-.122a11.15 11.15 0 0 0-1.404-.1Z" clip-rule="evenodd"/></g><defs><clipPath id="a"><path fill="#fff" d="M0 0h100v66H0z"/></clipPath></defs></svg>