<svg xmlns="http://www.w3.org/2000/svg" width="84" height="69" fill="none"><g fill-rule="evenodd" clip-path="url(#a)" clip-rule="evenodd"><path fill="#38A1E8" d="M23.153 54.192s-2.788 7.815-2.056 10.812c.605 2.48 3.084 4.015 5.53 3.423 2.455-.594 3.944-3.091 3.339-5.569-.732-2.999-6.813-8.666-6.813-8.666ZM40.744 53.958s-2.788 7.815-2.056 10.814c.605 2.478 3.084 4.013 5.53 3.421 2.455-.594 3.943-3.091 3.338-5.569-.732-2.999-6.812-8.666-6.812-8.666ZM59.023 53.715s-2.789 7.815-2.056 10.812c.605 2.48 3.084 4.015 5.53 3.423 2.455-.594 3.943-3.09 3.336-5.569-.732-2.999-6.81-8.666-6.81-8.666Z"/><path fill="#D6E3F2" d="M12.647 23.025C5.675 23.025 0 28.732 0 35.748c0 7.011 5.675 12.72 12.647 12.72h54.99c8.755 0 15.875-7.165 15.875-15.97 0-8.807-7.12-15.971-15.875-15.971-1.628 0-3.248.253-4.809.748l-1.017.326-.36-1.013C58.092 7.083 49.11.698 39.103.698c-12.233 0-22.386 9.22-23.618 21.448l-.114 1.133-1.122-.14a12.642 12.642 0 0 0-1.6-.114Z"/></g><defs><clipPath id="a"><path fill="#fff" d="M0 0h84v69H0z"/></clipPath></defs></svg>