<svg xmlns="http://www.w3.org/2000/svg" width="100" height="81" fill="none"><g fill-rule="evenodd" clip-path="url(#a)" clip-rule="evenodd"><path fill="#38A1E8" d="M22.87 51.88s-2.727 7.284-2.045 10.066c.562 2.3 2.927 3.71 5.278 3.143 2.354-.569 3.798-2.899 3.234-5.2-.68-2.783-6.467-8.01-6.467-8.01ZM39.73 51.54s-2.727 7.285-2.045 10.067c.562 2.3 2.927 3.71 5.278 3.143 2.355-.569 3.798-2.898 3.234-5.2-.68-2.783-6.467-8.01-6.467-8.01ZM57.25 51.189s-2.727 7.285-2.046 10.066c.562 2.3 2.928 3.71 5.278 3.144 2.355-.57 3.799-2.899 3.235-5.2-.68-2.783-6.467-8.01-6.467-8.01ZM73.753 50.371s-2.727 7.285-2.045 10.067c.562 2.3 2.927 3.71 5.278 3.143 2.355-.569 3.798-2.898 3.234-5.199-.68-2.784-6.467-8.01-6.467-8.01ZM32.76 67.258s-2.726 7.285-2.044 10.067c.561 2.3 2.927 3.71 5.277 3.143 2.355-.569 3.799-2.899 3.235-5.2-.68-2.783-6.467-8.01-6.467-8.01ZM50.28 66.906s-2.727 7.285-2.045 10.067c.562 2.3 2.927 3.71 5.278 3.143 2.354-.569 3.798-2.898 3.234-5.2-.68-2.783-6.467-8.01-6.467-8.01ZM66.784 66.09s-2.727 7.284-2.046 10.066c.562 2.3 2.928 3.71 5.278 3.143 2.355-.569 3.799-2.899 3.235-5.2-.68-2.783-6.467-8.01-6.467-8.01Z"/><path fill="#BAC6D1" d="M88.96 24.086c6.06 0 10.991 4.966 10.991 11.073 0 6.103-4.93 11.068-10.99 11.068H41.17c-7.604 0-13.793-6.235-13.793-13.898 0-7.663 6.189-13.898 13.794-13.898 1.416 0 2.824.22 4.18.653l.885.282.312-.88c2.92-8.273 10.726-13.83 19.42-13.83 10.632 0 19.456 8.023 20.527 18.665l.099.985.976-.121c.54-.067.981-.099 1.39-.099Z"/><path fill="#D6E3F2" d="M12.142 22.041C5.448 22.041 0 27.51 0 34.231c0 6.718 5.448 12.187 12.142 12.187h52.793c8.404 0 15.24-6.864 15.24-15.302 0-8.437-6.836-15.301-15.24-15.301a15.28 15.28 0 0 0-4.617.717l-.977.312-.345-.97C55.77 6.767 47.146.65 37.54.65c-11.745 0-21.492 8.834-22.675 20.549l-.11 1.085-1.077-.134a12.16 12.16 0 0 0-1.536-.109Z"/></g><defs><clipPath id="a"><path fill="#fff" d="M0 0h100v81H0z"/></clipPath></defs></svg>