<svg xmlns="http://www.w3.org/2000/svg" width="63" height="70" fill="none"><path fill="#4FB4ED" fill-rule="evenodd" d="M62.852 38.262a2.203 2.203 0 0 0-1.028-1.362 2.235 2.235 0 0 0-1.7-.241l-14.56 3.901-9.628-5.559 9.629-5.561 14.592 3.908c1.2.275 2.383-.425 2.69-1.591.16-.583.08-1.19-.223-1.71a2.186 2.186 0 0 0-1.353-1.032l-10.22-2.742 9.93-5.728a2.239 2.239 0 0 0 .793-3.04 2.246 2.246 0 0 0-3.06-.83l-9.898 5.723 2.74-10.227a2.26 2.26 0 0 0-.239-1.705 2.213 2.213 0 0 0-1.364-1.028 2.263 2.263 0 0 0-2.722 1.585l-3.899 14.542-9.629 5.562V20.004L44.357 9.352a2.264 2.264 0 0 0-.004-3.156 2.223 2.223 0 0 0-1.587-.66c-.598 0-1.16.235-1.583.658l-7.48 7.48V2.233A2.242 2.242 0 0 0 31.459 0a2.235 2.235 0 0 0-2.233 2.233v11.441l-7.478-7.478a2.237 2.237 0 0 0-3.179.007 2.267 2.267 0 0 0 .01 3.155l10.647 10.646v11.123l-9.631-5.562-3.902-14.556a2.256 2.256 0 0 0-2.717-1.57c-1.194.304-1.912 1.534-1.605 2.741l2.742 10.22L4.2 16.673c-1.074-.612-2.415-.248-3.056.832-.612 1.073-.248 2.415.83 3.054l9.904 5.713-10.2 2.738a2.196 2.196 0 0 0-1.366 1.02 2.278 2.278 0 0 0-.237 1.733 2.249 2.249 0 0 0 2.742 1.574l14.536-3.897L26.99 35l-9.629 5.56-14.554-3.9a2.253 2.253 0 0 0-1.71.24c-.507.301-.877.79-1.014 1.336a2.23 2.23 0 0 0 1.573 2.751l10.22 2.74L1.96 49.45c-1.064.63-1.426 1.999-.805 3.045A2.216 2.216 0 0 0 3.1 53.618c.391 0 .775-.1 1.117-.293l9.906-5.725-2.738 10.213a2.21 2.21 0 0 0 .223 1.705c.296.512.771.88 1.33 1.033.194.059.392.086.607.086.992 0 1.88-.68 2.165-1.66l3.888-14.545 9.63-5.559v11.123l-10.64 10.645a2.24 2.24 0 0 0 3.168 3.166l7.471-7.479v11.44a2.239 2.239 0 0 0 4.477 0V56.325l7.476 7.476c.423.427.987.662 1.582.662a2.24 2.24 0 0 0 1.587-3.822L33.703 49.995v-11.12l9.63 5.568 3.894 14.551a2.254 2.254 0 0 0 2.158 1.642c.213 0 .411-.027.598-.084a2.23 2.23 0 0 0 1.564-2.733l-2.74-10.211 9.918 5.723c.341.193.723.293 1.105.293.807 0 1.53-.419 1.94-1.121.613-1.055.25-2.428-.815-3.063l-9.904-5.714 10.211-2.737a2.219 2.219 0 0 0 1.367-1.046c.295-.516.377-1.13.223-1.682Z" clip-rule="evenodd"/></svg>