<svg xmlns="http://www.w3.org/2000/svg" xml:space="preserve" id="Layer_1" x="0" y="0" style="enable-background:new 0 0 512 512" version="1.1" viewBox="0 0 512 512"><style>.st0{fill:#f9e206}.st1{fill:#58595b}</style><circle cx="259.6" cy="227.2" r="107.7" class="st0"/><circle cx="213.3" cy="212.4" r="17.3" class="st1"/><circle cx="306" cy="212.4" r="17.3" class="st1"/><path d="M277.3 240.5c0 10.4-8.3 18.8-18.8 18.8s-18.8-8.3-18.8-18.8h37.6z" style="fill:#ff6951"/><path d="M280.4 115.3 222 118l33.8-55.7zM422.7 194.2l-38.4 44.1-16.9-63zM193.7 132.2l-43.4 39.2-9.2-64.5zM354.5 158.5l-45.8-36.3 62.1-19.9zM141.8 250l-52.5-25.7 56.5-32.6zM339.5 310.7l-50.2 29.9 58.9 27.9zM257.8 344.4l-57.8-8.7 27.9 58.9zM375.8 251.4l-23 53.8 64.1-12.2zM149.5 274.8 120 325.2l65-3.9z" class="st0"/></svg>