<svg xmlns="http://www.w3.org/2000/svg" width="70" height="69" fill="none"><path fill="#F9C900" fill-rule="evenodd" d="M35.578 19.06c8.631.007 15.623 7.007 15.616 15.637-.007 8.63-7.01 15.618-15.64 15.612-8.633-.007-15.624-7.007-15.617-15.637.007-8.63 7.009-15.618 15.64-15.612ZM31.851 55.525c0 .187-.024.378-.076.567l-2.593 9.647a2.19 2.19 0 1 1-4.231-1.137l2.593-9.647a2.19 2.19 0 0 1 4.307.57ZM20.994 51.564c0 .59-.238 1.18-.705 1.611l-7.348 6.767a2.19 2.19 0 0 1-3.096-.127 2.189 2.189 0 0 1 .125-3.095l7.347-6.769a2.194 2.194 0 0 1 3.677 1.613ZM15.056 40.928c0 .975-.656 1.863-1.642 2.119L3.74 45.546a2.191 2.191 0 1 1-1.097-4.242l9.674-2.5a2.191 2.191 0 0 1 2.74 2.124ZM15.364 28.656a2.191 2.191 0 0 1-2.738 2.12l-9.675-2.49a2.19 2.19 0 1 1 1.093-4.241l9.675 2.49a2.19 2.19 0 0 1 1.645 2.121ZM20.94 17.99a2.191 2.191 0 0 1-3.715 1.571l-7.178-6.948a2.191 2.191 0 0 1 3.05-3.149l7.176 6.95a2.18 2.18 0 0 1 .667 1.575ZM31.12 11.899a2.19 2.19 0 0 1-4.316.531l-2.442-9.686a2.191 2.191 0 0 1 4.249-1.07l2.442 9.686c.044.18.067.36.067.539ZM45.789 2.926c0 .185-.025.372-.074.557l-2.54 9.661a2.19 2.19 0 0 1-4.238-1.115l2.54-9.66a2.193 2.193 0 0 1 4.312.557ZM61.678 11.267c0 .612-.256 1.22-.752 1.651l-7.54 6.558a2.194 2.194 0 0 1-3.09-.216 2.189 2.189 0 0 1 .215-3.09l7.537-6.556a2.192 2.192 0 0 1 3.63 1.653ZM69.447 25.886a2.19 2.19 0 0 1-1.611 2.11L58.2 30.64a2.19 2.19 0 1 1-1.16-4.226l9.636-2.644a2.194 2.194 0 0 1 2.771 2.116ZM69.281 42.965a2.19 2.19 0 0 1-2.737 2.12l-9.676-2.49a2.19 2.19 0 1 1 1.093-4.241l9.676 2.49a2.19 2.19 0 0 1 1.644 2.121ZM61.099 58.006a2.19 2.19 0 0 1-3.757 1.529l-6.985-7.14a2.19 2.19 0 1 1 3.132-3.065l6.985 7.143c.418.427.625.98.625 1.533ZM46.014 66.085a2.19 2.19 0 0 1-1.623 2.112 2.188 2.188 0 0 1-2.684-1.545l-2.6-9.644a2.19 2.19 0 0 1 4.231-1.142l2.6 9.647c.052.191.076.383.076.572Z" clip-rule="evenodd"/></svg>